<?xml version="1.0" encoding="UTF-8" standalone="no"?>
<!DOCTYPE svg PUBLIC "-//W3C//DTD SVG 1.1//EN"
 "http://www.w3.org/Graphics/SVG/1.1/DTD/svg11.dtd">
<!-- Generated by graphviz version 12.1.2 (20240928.0832)
 -->
<!-- Title: kba_integrated_agent_architecture Pages: 1 -->
<!-- source-dot-sha256: 02ae41ca627ce71c35180e2a8c8315ab9e97b25fbf2bfb7d6744e64efec68e94 -->
<svg width="1865pt" height="1145pt"
 viewBox="0.00 0.00 1865.20 1145.32" xmlns="http://www.w3.org/2000/svg" xmlns:xlink="http://www.w3.org/1999/xlink">
<g id="graph0" class="graph" transform="scale(1 1) rotate(0) translate(21.6 1123.72)">
<title>kba_integrated_agent_architecture</title>
<polygon fill="#f8fafc" stroke="none" points="-21.6,21.6 -21.6,-1123.72 1843.6,-1123.72 1843.6,21.6 -21.6,21.6"/>
<text text-anchor="middle" x="911" y="-1077.22" font-family="Arial" font-size="22.00">Keystone Business Agents — clear conceptual overview</text>
<text text-anchor="middle" x="911" y="-1051.72" font-family="Arial" font-size="22.00">Generated 2026&#45;09&#45;18 • request → interpretation → selected path → verified evidence → answer</text>
<g id="clust1" class="cluster">
<title>cluster_control</title>
<path fill="#f8fafc" stroke="#fdba74" stroke-dasharray="5,2" d="M20,-804.8C20,-804.8 1366,-804.8 1366,-804.8 1372,-804.8 1378,-810.8 1378,-816.8 1378,-816.8 1378,-1023.12 1378,-1023.12 1378,-1029.12 1372,-1035.12 1366,-1035.12 1366,-1035.12 20,-1035.12 20,-1035.12 14,-1035.12 8,-1029.12 8,-1023.12 8,-1023.12 8,-816.8 8,-816.8 8,-810.8 14,-804.8 20,-804.8"/>
<text text-anchor="middle" x="693" y="-1016.87" font-family="Arial" font-size="15.00" fill="#9a3412">UNDERSTAND AND AUTHORIZE</text>
</g>
<g id="clust3" class="cluster">
<title>cluster_paths</title>
<path fill="#f8fafc" stroke="#a5b4fc" stroke-dasharray="5,2" d="M797,-571.64C797,-571.64 1802,-571.64 1802,-571.64 1808,-571.64 1814,-577.64 1814,-583.64 1814,-583.64 1814,-784.8 1814,-784.8 1814,-790.8 1808,-796.8 1802,-796.8 1802,-796.8 797,-796.8 797,-796.8 791,-796.8 785,-790.8 785,-784.8 785,-784.8 785,-583.64 785,-583.64 785,-577.64 791,-571.64 797,-571.64"/>
<text text-anchor="middle" x="1649.62" y="-778.55" font-family="Arial" font-size="15.00" fill="#3730a3">EXECUTION PATHS — CONTEXT OPTIONAL</text>
</g>
<g id="clust5" class="cluster">
<title>cluster_result</title>
<path fill="#f8fafc" stroke="#86efac" stroke-dasharray="5,2" d="M1119,-8C1119,-8 1441,-8 1441,-8 1447,-8 1453,-14 1453,-20 1453,-20 1453,-551.64 1453,-551.64 1453,-557.64 1447,-563.64 1441,-563.64 1441,-563.64 1119,-563.64 1119,-563.64 1113,-563.64 1107,-557.64 1107,-551.64 1107,-551.64 1107,-20 1107,-20 1107,-14 1113,-8 1119,-8"/>
<text text-anchor="middle" x="1228.25" y="-545.39" font-family="Arial" font-size="15.00" fill="#166534">REASON → VERIFY → ANSWER</text>
</g>
<!-- request -->
<g id="node1" class="node">
<title>request</title>
<path fill="#f1f5f9" stroke="#64748b" stroke-width="1.6" d="M265.9,-939.54C265.9,-939.54 42.1,-939.54 42.1,-939.54 36.1,-939.54 30.1,-933.54 30.1,-927.54 30.1,-927.54 30.1,-886.38 30.1,-886.38 30.1,-880.38 36.1,-874.38 42.1,-874.38 42.1,-874.38 265.9,-874.38 265.9,-874.38 271.9,-874.38 277.9,-880.38 277.9,-886.38 277.9,-886.38 277.9,-927.54 277.9,-927.54 277.9,-933.54 271.9,-939.54 265.9,-939.54"/>
<text text-anchor="middle" x="154" y="-917.11" font-family="Arial" font-size="13.00">1 &#160;REQUEST</text>
<text text-anchor="middle" x="154" y="-902.11" font-family="Arial" font-size="13.00">Slack • CLI • schedule</text>
<text text-anchor="middle" x="154" y="-887.11" font-family="Arial" font-size="13.00">Preserve raw ask + bounded context</text>
</g>
<!-- orchestrator -->
<g id="node2" class="node">
<title>orchestrator</title>
<path fill="#fff7ed" stroke="#ea580c" stroke-width="2.4" d="M554.15,-947.04C554.15,-947.04 319.85,-947.04 319.85,-947.04 313.85,-947.04 307.85,-941.04 307.85,-935.04 307.85,-935.04 307.85,-878.88 307.85,-878.88 307.85,-872.88 313.85,-866.88 319.85,-866.88 319.85,-866.88 554.15,-866.88 554.15,-866.88 560.15,-866.88 566.15,-872.88 566.15,-878.88 566.15,-878.88 566.15,-935.04 566.15,-935.04 566.15,-941.04 560.15,-947.04 554.15,-947.04"/>
<text text-anchor="middle" x="437" y="-924.61" font-family="Arial" font-size="13.00">2 &#160;ORCHESTRATOR AGENT</text>
<text text-anchor="middle" x="437" y="-909.61" font-family="Arial" font-size="13.00">Interpret meaning • uncertainty</text>
<text text-anchor="middle" x="437" y="-894.61" font-family="Arial" font-size="13.00">owner • constraints • safe defaults</text>
<text text-anchor="middle" x="437" y="-879.61" font-family="Arial" font-size="13.00">Agent mention is advice—not authority</text>
</g>
<!-- request&#45;&gt;orchestrator -->
<g id="edge1" class="edge">
<title>request&#45;&gt;orchestrator</title>
<path fill="none" stroke="#475569" stroke-width="1.8" d="M278.13,-906.96C278.13,-906.96 296.71,-906.96 296.71,-906.96"/>
<polygon fill="#475569" stroke="#475569" stroke-width="1.8" points="296.71,-909.69 304.51,-906.96 296.71,-904.23 296.71,-909.69"/>
</g>
<!-- gates -->
<g id="node3" class="node">
<title>gates</title>
<path fill="#fffbeb" stroke="#d97706" stroke-width="1.6" d="M838.27,-947.04C838.27,-947.04 607.73,-947.04 607.73,-947.04 601.73,-947.04 595.73,-941.04 595.73,-935.04 595.73,-935.04 595.73,-878.88 595.73,-878.88 595.73,-872.88 601.73,-866.88 607.73,-866.88 607.73,-866.88 838.27,-866.88 838.27,-866.88 844.27,-866.88 850.27,-872.88 850.27,-878.88 850.27,-878.88 850.27,-935.04 850.27,-935.04 850.27,-941.04 844.27,-947.04 838.27,-947.04"/>
<text text-anchor="middle" x="723" y="-924.61" font-family="Arial" font-size="13.00">3 &#160;SAFE EXECUTION ENVELOPE</text>
<text text-anchor="middle" x="723" y="-909.61" font-family="Arial" font-size="13.00">approval • identity • source sufficiency</text>
<text text-anchor="middle" x="723" y="-894.61" font-family="Arial" font-size="13.00">provider/live scope • exact writes</text>
<text text-anchor="middle" x="723" y="-879.61" font-family="Arial" font-size="13.00">model budget</text>
</g>
<!-- orchestrator&#45;&gt;gates -->
<g id="edge2" class="edge">
<title>orchestrator&#45;&gt;gates</title>
<path fill="none" stroke="#475569" stroke-width="1.8" d="M567.03,-906.96C567.03,-906.96 584.9,-906.96 584.9,-906.96"/>
<polygon fill="#475569" stroke="#475569" stroke-width="1.8" points="584.9,-909.69 592.7,-906.96 584.9,-904.23 584.9,-909.69"/>
</g>
<!-- context -->
<g id="node7" class="node">
<title>context</title>
<path fill="#f0f9ff" stroke="#0284c7" stroke-width="1.6" d="M1779.9,-748.8C1779.9,-748.8 1484.1,-748.8 1484.1,-748.8 1478.1,-748.8 1472.1,-742.8 1472.1,-736.8 1472.1,-736.8 1472.1,-605.64 1472.1,-605.64 1472.1,-599.64 1478.1,-593.64 1484.1,-593.64 1484.1,-593.64 1779.9,-593.64 1779.9,-593.64 1785.9,-593.64 1791.9,-599.64 1791.9,-605.64 1791.9,-605.64 1791.9,-736.8 1791.9,-736.8 1791.9,-742.8 1785.9,-748.8 1779.9,-748.8"/>
<text text-anchor="middle" x="1632" y="-726.37" font-family="Arial" font-size="13.00">OPTIONAL CONTEXT — ONLY WHEN NEEDED</text>
<text text-anchor="middle" x="1632" y="-711.37" font-family="Arial" font-size="13.00">RAG Retrieval Specialist</text>
<text text-anchor="middle" x="1632" y="-696.37" font-family="Arial" font-size="13.00">Airtable Context Agent</text>
<text text-anchor="middle" x="1632" y="-681.37" font-family="Arial" font-size="13.00">Google Workspace Context Agent</text>
<text text-anchor="middle" x="1632" y="-666.37" font-family="Arial" font-size="13.00">Zotero Context Agent</text>
<text text-anchor="middle" x="1632" y="-651.37" font-family="Arial" font-size="13.00">RSS Context Agent</text>
<text text-anchor="middle" x="1632" y="-636.37" font-family="Arial" font-size="13.00">Preprints Context Agent</text>
<text text-anchor="middle" x="1632" y="-621.37" font-family="Arial" font-size="13.00">Bounded read evidence • model&#45;visible</text>
<text text-anchor="middle" x="1632" y="-606.37" font-family="Arial" font-size="13.00">No inherited write authority</text>
</g>
<!-- orchestrator&#45;&gt;context -->
<g id="edge6" class="edge">
<title>orchestrator&#45;&gt;context</title>
<path fill="none" stroke="#0284c7" stroke-width="1.8" stroke-dasharray="5,2" d="M437,-866.25C437,-816.49 437,-738.8 437,-738.8 437,-738.8 1461.24,-738.8 1461.24,-738.8"/>
<polygon fill="#0284c7" stroke="#0284c7" stroke-width="1.8" points="1461.24,-741.53 1469.04,-738.8 1461.24,-736.07 1461.24,-741.53"/>
</g>
<!-- choose -->
<g id="node4" class="node">
<title>choose</title>
<path fill="#eef2ff" stroke="#4f46e5" stroke-width="1.6" d="M1106.63,-983.29C1106.63,-983.29 891.32,-910.79 891.32,-910.79 885.64,-908.87 885.64,-905.05 891.32,-903.13 891.32,-903.13 1106.63,-830.63 1106.63,-830.63 1112.31,-828.71 1123.69,-828.71 1129.37,-830.63 1129.37,-830.63 1344.68,-903.13 1344.68,-903.13 1350.36,-905.05 1350.36,-908.87 1344.68,-910.79 1344.68,-910.79 1129.37,-983.29 1129.37,-983.29 1123.69,-985.21 1112.31,-985.21 1106.63,-983.29"/>
<text text-anchor="middle" x="1118" y="-924.61" font-family="Arial" font-size="13.00">4 &#160;CHOOSE ONE PATH</text>
<text text-anchor="middle" x="1118" y="-909.61" font-family="Arial" font-size="13.00">Bounded single owner</text>
<text text-anchor="middle" x="1118" y="-894.61" font-family="Arial" font-size="13.00">or resumable / approval&#45;dependent</text>
<text text-anchor="middle" x="1118" y="-879.61" font-family="Arial" font-size="13.00">ambiguous / multi&#45;owner</text>
</g>
<!-- gates&#45;&gt;choose -->
<g id="edge3" class="edge">
<title>gates&#45;&gt;choose</title>
<path fill="none" stroke="#475569" stroke-width="1.8" d="M850.7,-906.96C850.7,-906.96 868.15,-906.96 868.15,-906.96"/>
<polygon fill="#475569" stroke="#475569" stroke-width="1.8" points="868.15,-909.69 875.95,-906.96 868.15,-904.23 868.15,-909.69"/>
</g>
<!-- direct -->
<g id="node5" class="node">
<title>direct</title>
<path fill="#ecfdf5" stroke="#16a34a" stroke-width="1.6" d="M1093.4,-711.3C1093.4,-711.3 818.6,-711.3 818.6,-711.3 812.6,-711.3 806.6,-705.3 806.6,-699.3 806.6,-699.3 806.6,-643.14 806.6,-643.14 806.6,-637.14 812.6,-631.14 818.6,-631.14 818.6,-631.14 1093.4,-631.14 1093.4,-631.14 1099.4,-631.14 1105.4,-637.14 1105.4,-643.14 1105.4,-643.14 1105.4,-699.3 1105.4,-699.3 1105.4,-705.3 1099.4,-711.3 1093.4,-711.3"/>
<text text-anchor="middle" x="956" y="-688.87" font-family="Arial" font-size="13.00">5A &#160;DIRECT / SINGLE OWNER</text>
<text text-anchor="middle" x="956" y="-673.87" font-family="Arial" font-size="13.00">Owning specialist, or KNI Chief of Staff Agent</text>
<text text-anchor="middle" x="956" y="-658.87" font-family="Arial" font-size="13.00">delegates one bounded task</text>
<text text-anchor="middle" x="956" y="-643.87" font-family="Arial" font-size="13.00">No graph implied</text>
</g>
<!-- choose&#45;&gt;direct -->
<g id="edge4" class="edge">
<title>choose&#45;&gt;direct</title>
<path fill="none" stroke="#16a34a" stroke-width="1.8" d="M992.67,-868.56C992.67,-868.56 992.67,-722.1 992.67,-722.1"/>
<polygon fill="#16a34a" stroke="#16a34a" stroke-width="1.8" points="995.41,-722.1 992.68,-714.3 989.95,-722.1 995.41,-722.1"/>
</g>
<!-- workitem -->
<g id="node6" class="node">
<title>workitem</title>
<path fill="#f5f3ff" stroke="#7c3aed" stroke-width="2.2" d="M1412.53,-718.8C1412.53,-718.8 1147.47,-718.8 1147.47,-718.8 1141.47,-718.8 1135.47,-712.8 1135.47,-706.8 1135.47,-706.8 1135.47,-635.64 1135.47,-635.64 1135.47,-629.64 1141.47,-623.64 1147.47,-623.64 1147.47,-623.64 1412.53,-623.64 1412.53,-623.64 1418.53,-623.64 1424.53,-629.64 1424.53,-635.64 1424.53,-635.64 1424.53,-706.8 1424.53,-706.8 1424.53,-712.8 1418.53,-718.8 1412.53,-718.8"/>
<text text-anchor="middle" x="1280" y="-696.37" font-family="Arial" font-size="13.00">5B &#160;WORKITEM / OPTIONAL LANGGRAPH</text>
<text text-anchor="middle" x="1280" y="-681.37" font-family="Arial" font-size="13.00">SQLite business state + typed context pack</text>
<text text-anchor="middle" x="1280" y="-666.37" font-family="Arial" font-size="13.00">Chief / manager selects the next owner</text>
<text text-anchor="middle" x="1280" y="-651.37" font-family="Arial" font-size="13.00">manager loop • approval pause • resume</text>
<text text-anchor="middle" x="1280" y="-636.37" font-family="Arial" font-size="13.00">graph checkpoint proof is separate</text>
</g>
<!-- choose&#45;&gt;workitem -->
<g id="edge5" class="edge">
<title>choose&#45;&gt;workitem</title>
<path fill="none" stroke="#4f46e5" stroke-width="1.8" d="M1245.76,-869.35C1245.76,-869.35 1245.76,-730.25 1245.76,-730.25"/>
<polygon fill="#4f46e5" stroke="#4f46e5" stroke-width="1.8" points="1248.49,-730.25 1245.76,-722.45 1243.03,-730.25 1248.49,-730.25"/>
</g>
<!-- specialist -->
<g id="node8" class="node">
<title>specialist</title>
<path fill="#ecfdf5" stroke="#16a34a" stroke-width="1.6" d="M1402.03,-515.64C1402.03,-515.64 1157.97,-515.64 1157.97,-515.64 1151.97,-515.64 1145.97,-509.64 1145.97,-503.64 1145.97,-503.64 1145.97,-417.48 1145.97,-417.48 1145.97,-411.48 1151.97,-405.48 1157.97,-405.48 1157.97,-405.48 1402.03,-405.48 1402.03,-405.48 1408.03,-405.48 1414.03,-411.48 1414.03,-417.48 1414.03,-417.48 1414.03,-503.64 1414.03,-503.64 1414.03,-509.64 1408.03,-515.64 1402.03,-515.64"/>
<text text-anchor="middle" x="1280" y="-493.21" font-family="Arial" font-size="13.00">6 &#160;SELECTED SPECIALIST REASONS</text>
<text text-anchor="middle" x="1280" y="-478.21" font-family="Arial" font-size="13.00">Gmail Inbound Triage Agent</text>
<text text-anchor="middle" x="1280" y="-463.21" font-family="Arial" font-size="13.00">Business Research Analyst</text>
<text text-anchor="middle" x="1280" y="-448.21" font-family="Arial" font-size="13.00">Opportunity Scout Agent</text>
<text text-anchor="middle" x="1280" y="-433.21" font-family="Arial" font-size="13.00">Outreach Composer Agent</text>
<text text-anchor="middle" x="1280" y="-418.21" font-family="Arial" font-size="13.00">Raw ask + Orchestrator memo + context</text>
</g>
<!-- direct&#45;&gt;specialist -->
<g id="edge7" class="edge">
<title>direct&#45;&gt;specialist</title>
<path fill="none" stroke="#16a34a" stroke-width="1.8" d="M956,-631.1C956,-569.98 956,-460.56 956,-460.56 956,-460.56 1135.35,-460.56 1135.35,-460.56"/>
<polygon fill="#16a34a" stroke="#16a34a" stroke-width="1.8" points="1135.35,-463.29 1143.15,-460.56 1135.35,-457.83 1135.35,-463.29"/>
</g>
<!-- workitem&#45;&gt;workitem -->
<g id="edge9" class="edge">
<title>workitem&#45;&gt;workitem</title>
<path fill="none" stroke="#7c3aed" stroke-width="1.8" d="M1390.29,-719.55C1390.29,-725.09 1390.29,-728.8 1390.29,-728.8 1390.29,-728.8 1451.5,-728.8 1451.5,-728.8 1451.5,-728.8 1451.5,-613.64 1451.5,-613.64 1451.5,-613.64 1419.28,-613.64 1419.28,-613.64 1419.28,-613.64 1419.28,-614.57 1419.28,-614.57"/>
<polygon fill="#7c3aed" stroke="#7c3aed" stroke-width="1.8" points="1416.55,-612.37 1419.28,-620.17 1422.01,-612.37 1416.55,-612.37"/>
</g>
<!-- workitem&#45;&gt;specialist -->
<g id="edge8" class="edge">
<title>workitem&#45;&gt;specialist</title>
<path fill="none" stroke="#4f46e5" stroke-width="1.8" d="M1235.33,-622.89C1235.33,-622.89 1235.33,-526.63 1235.33,-526.63"/>
<polygon fill="#4f46e5" stroke="#4f46e5" stroke-width="1.8" points="1238.06,-526.63 1235.33,-518.83 1232.6,-526.63 1238.06,-526.63"/>
</g>
<!-- context&#45;&gt;specialist -->
<g id="edge10" class="edge">
<title>context&#45;&gt;specialist</title>
<path fill="none" stroke="#0284c7" stroke-width="1.8" stroke-dasharray="5,2" d="M1472.04,-603.64C1397.36,-603.64 1324.67,-603.64 1324.67,-603.64 1324.67,-603.64 1324.67,-526.4 1324.67,-526.4"/>
<polygon fill="#0284c7" stroke="#0284c7" stroke-width="1.8" points="1327.41,-526.4 1324.68,-518.6 1321.95,-526.4 1327.41,-526.4"/>
</g>
<!-- evidence -->
<g id="node9" class="node">
<title>evidence</title>
<path fill="#eff6ff" stroke="#2563eb" stroke-width="1.6" d="M1418.9,-360.48C1418.9,-360.48 1141.1,-360.48 1141.1,-360.48 1135.1,-360.48 1129.1,-354.48 1129.1,-348.48 1129.1,-348.48 1129.1,-277.32 1129.1,-277.32 1129.1,-271.32 1135.1,-265.32 1141.1,-265.32 1141.1,-265.32 1418.9,-265.32 1418.9,-265.32 1424.9,-265.32 1430.9,-271.32 1430.9,-277.32 1430.9,-277.32 1430.9,-348.48 1430.9,-348.48 1430.9,-354.48 1424.9,-360.48 1418.9,-360.48"/>
<text text-anchor="middle" x="1280" y="-338.05" font-family="Arial" font-size="13.00">7 &#160;EVIDENCE + TOOL BOUNDARY</text>
<text text-anchor="middle" x="1280" y="-323.05" font-family="Arial" font-size="13.00">Attached tools ≠ actual tool calls</text>
<text text-anchor="middle" x="1280" y="-308.05" font-family="Arial" font-size="13.00">SDK tool call + output • workflow helper/read</text>
<text text-anchor="middle" x="1280" y="-293.05" font-family="Arial" font-size="13.00">pre&#45;acquired verified context</text>
<text text-anchor="middle" x="1280" y="-278.05" font-family="Arial" font-size="13.00">permission • exact scope • read&#45;back • receipt</text>
</g>
<!-- specialist&#45;&gt;evidence -->
<g id="edge11" class="edge">
<title>specialist&#45;&gt;evidence</title>
<path fill="none" stroke="#16a34a" stroke-width="1.8" d="M1280,-405.16C1280,-405.16 1280,-371.39 1280,-371.39"/>
<polygon fill="#16a34a" stroke="#16a34a" stroke-width="1.8" points="1282.73,-371.39 1280,-363.59 1277.27,-371.39 1282.73,-371.39"/>
</g>
<!-- review -->
<g id="node10" class="node">
<title>review</title>
<path fill="#fff7ed" stroke="#ea580c" stroke-width="1.6" d="M1385.9,-220.32C1385.9,-220.32 1174.1,-220.32 1174.1,-220.32 1168.1,-220.32 1162.1,-214.32 1162.1,-208.32 1162.1,-208.32 1162.1,-152.16 1162.1,-152.16 1162.1,-146.16 1168.1,-140.16 1174.1,-140.16 1174.1,-140.16 1385.9,-140.16 1385.9,-140.16 1391.9,-140.16 1397.9,-146.16 1397.9,-152.16 1397.9,-152.16 1397.9,-208.32 1397.9,-208.32 1397.9,-214.32 1391.9,-220.32 1385.9,-220.32"/>
<text text-anchor="middle" x="1280" y="-197.89" font-family="Arial" font-size="13.00">8 &#160;RECONCILE</text>
<text text-anchor="middle" x="1280" y="-182.89" font-family="Arial" font-size="13.00">Orchestrator + deterministic review</text>
<text text-anchor="middle" x="1280" y="-167.89" font-family="Arial" font-size="13.00">request coverage • receipt truth</text>
<text text-anchor="middle" x="1280" y="-152.89" font-family="Arial" font-size="13.00">safe repair or useful blocker</text>
</g>
<!-- evidence&#45;&gt;review -->
<g id="edge12" class="edge">
<title>evidence&#45;&gt;review</title>
<path fill="none" stroke="#2563eb" stroke-width="1.8" d="M1280,-265.01C1280,-265.01 1280,-231.15 1280,-231.15"/>
<polygon fill="#2563eb" stroke="#2563eb" stroke-width="1.8" points="1282.73,-231.15 1280,-223.35 1277.27,-231.15 1282.73,-231.15"/>
</g>
<!-- answer -->
<g id="node11" class="node">
<title>answer</title>
<path fill="#eff6ff" stroke="#2563eb" stroke-width="2.2" d="M1389.28,-95.16C1389.28,-95.16 1170.72,-95.16 1170.72,-95.16 1164.72,-95.16 1158.72,-89.16 1158.72,-83.16 1158.72,-83.16 1158.72,-42 1158.72,-42 1158.72,-36 1164.72,-30 1170.72,-30 1170.72,-30 1389.28,-30 1389.28,-30 1395.28,-30 1401.28,-36 1401.28,-42 1401.28,-42 1401.28,-83.16 1401.28,-83.16 1401.28,-89.16 1395.28,-95.16 1389.28,-95.16"/>
<text text-anchor="middle" x="1280" y="-72.73" font-family="Arial" font-size="13.00">9 &#160;ONE ANSWER</text>
<text text-anchor="middle" x="1280" y="-57.73" font-family="Arial" font-size="13.00">Slack • CLI • artifact</text>
<text text-anchor="middle" x="1280" y="-42.73" font-family="Arial" font-size="13.00">Result first; proof boundaries visible</text>
</g>
<!-- review&#45;&gt;answer -->
<g id="edge13" class="edge">
<title>review&#45;&gt;answer</title>
<path fill="none" stroke="#475569" stroke-width="1.8" d="M1280,-139.75C1280,-139.75 1280,-106.64 1280,-106.64"/>
<polygon fill="#475569" stroke="#475569" stroke-width="1.8" points="1282.73,-106.64 1280,-98.84 1277.27,-106.64 1282.73,-106.64"/>
</g>
</g>
</svg>
